<svg width="40" height="40" xmlns="http://www.w3.org/2000/svg">

 <g>
  <title>background</title>
  <rect fill="none" id="canvas_background" height="402" width="582" y="-1" x="-1"/>
 </g>
 <g>
  <title fill="#000000">Layer 1</title>
  <path id="svg_3" fill="#000000" d="m20,2c9.925,0 18,8.075 18,18s-8.074,18 -18,18s-18,-8.075 -18,-18s8.075,-18 18,-18m0,-2c-11.046,0 -20,8.954 -20,20c0,11.047 8.954,20 20,20c11.044,0 20,-8.953 20,-20c0,-11.046 -8.955,-20 -20,-20l0,0z"/>
  <path id="svg_4" fill-rule="evenodd" fill="#000000" d="m12.537,10.641l14.926,0c1.416,0 2.576,1.159 2.576,2.577l0,14.925c0,1.418 -1.16,2.577 -2.576,2.577l-14.926,0c-1.417,0 -2.577,-1.159 -2.577,-2.577l0,-14.925c0,-1.418 1.16,-2.577 2.577,-2.577l0,0zm12.051,2.231c-0.498,0 -0.904,0.407 -0.904,0.904l0,2.164c0,0.497 0.406,0.903 0.904,0.903l2.27,0c0.496,0 0.902,-0.406 0.902,-0.903l0,-2.164c0,-0.497 -0.406,-0.904 -0.902,-0.904l-2.27,0l0,0zm3.182,6.26l-1.768,0c0.168,0.546 0.258,1.124 0.258,1.724c0,3.34 -2.795,6.047 -6.24,6.047c-3.447,0 -6.243,-2.707 -6.243,-6.047c0,-0.6 0.091,-1.178 0.258,-1.724l-1.844,0l0,8.482c0,0.439 0.358,0.799 0.798,0.799l13.983,0c0.438,0 0.797,-0.359 0.797,-0.799l0,-8.482l0.001,0zm-7.75,-2.402c-2.229,0 -4.034,1.749 -4.034,3.907c0,2.159 1.805,3.909 4.034,3.909c2.226,0 4.031,-1.75 4.031,-3.909c0,-2.158 -1.805,-3.907 -4.031,-3.907z" clip-rule="evenodd"/>
 </g>
</svg>